<?xml version="1.0" encoding="utf-8"?>
<!-- Generator: Adobe Illustrator 22.1.0, SVG Export Plug-In . SVG Version: 6.00 Build 0)  -->
<svg version="1.1" id="Layer_1" xmlns="http://www.w3.org/2000/svg" xmlns:xlink="http://www.w3.org/1999/xlink" x="0px" y="0px"
	 width="600px" height="57px" viewBox="0 0 600 57" style="enable-background:new 0 0 600 57;" xml:space="preserve">
<style type="text/css">
	.st0{fill:#00B4FF;}
</style>
<path d="M569.8,14.5l6.5,19.9h-13.2l6.4-19.9C569.5,14.5,569.8,14.5,569.8,14.5z M558.6,49.2l4.3-13.5h14l5.4,16.1l-4.9,0.5v0.8H599
	v-0.8l-3-0.5L576.8,3.9l-6.5,4.5L557,49.2l-7.5,3.1V53H566v-0.8L558.6,49.2z"/>
<polygon points="125.7,51.8 125.7,5.5 129.9,5.1 129.9,4 110.3,4 110.3,5.1 114.5,5.5 114.5,51.3 110.3,51.8 110.3,53 147.3,53 
	148,40.8 147.3,40.8 139.3,51.3 "/>
<polygon points="182.4,5.1 195.2,5.5 202.9,16 203.6,16 203.3,4 167,4 167,5.1 171.2,5.5 171.2,51.3 167,51.8 167,53 204,53 
	204.7,40.8 204,40.8 195.9,51.3 182.4,51.8 182.4,29.1 192.1,29.5 195.9,37.2 196.6,37.2 196.6,19.4 195.9,19.4 192.1,27.5 
	182.4,27.8 "/>
<polygon points="457.7,51.7 457.7,53 477.1,53 477.1,51.7 472.9,51.2 472.9,5.6 477.1,5.1 477.1,4 457.7,4 457.7,5.1 461.8,5.6 
	461.8,51.2 "/>
<polygon points="84.2,5.1 97.1,5.5 104.7,16 105.4,16 105.1,4 68.8,4 68.8,5.1 73,5.5 73,51.3 68.8,51.8 68.8,53 105.8,53 
	106.5,40.8 105.8,40.8 97.8,51.3 84.2,51.8 84.2,29.1 93.9,29.5 97.8,37.2 98.4,37.2 98.4,19.4 97.8,19.4 93.9,27.5 84.2,27.8 "/>
<path d="M261.5,28.5c0-15.7,4.1-23.5,13-23.5s13,7.8,13,23.5s-4.1,23.5-13,23.5S261.5,44.2,261.5,28.5 M249.8,28.5
	c0,14.3,11.8,24.7,24.6,24.7c12.9,0,24.6-10.4,24.6-24.7S287.2,3.8,274.4,3.8C261.6,3.8,249.8,14.2,249.8,28.5"/>
<path d="M246.2,48.8l0.7-11.6h-0.7l-4.8,8c-1.4,2.5-5.1,6.7-9.6,6.7c-9.6,0-13.7-7.8-13.7-23.5s4.8-23.5,13.7-23.5
	c4.4,0,7.9,4.2,9.2,6.7l4.8,8h0.7L246.2,8c-2.7-1.7-8.9-4.2-15.7-4.2c-14.4,0-24,10.4-24,24.7s9.6,24.7,24,24.7
	C237.3,53,243.5,50.5,246.2,48.8"/>
<polygon points="337.2,34 316.6,3.9 299.2,3.9 299.2,4.9 306.6,5.3 306.6,48.8 299.2,51.9 299.2,52.8 315.9,52.8 315.9,51.9 
	308.1,48.8 307.9,11.6 308.3,11.6 337.3,53 339,53 339,7.8 346.3,4.7 346.3,4 329.7,4 329.7,4.7 337.4,7.8 337.6,34 "/>
<path d="M358.6,28.5c0-15.7,4.1-23.5,13-23.5s13,7.8,13,23.5s-4.1,23.5-13,23.5S358.6,44.2,358.6,28.5 M347,28.5
	c0,14.3,11.8,24.7,24.6,24.7c12.9,0,24.6-10.4,24.6-24.7S384.4,3.8,371.6,3.8S347,14.2,347,28.5"/>
<polygon points="428.6,34.8 415.4,4 397.1,4 397.1,5.1 404.4,5.6 404.4,49 397.1,52 397.1,52.8 413.7,52.8 413.7,52 406,49 
	405.6,11.8 406.1,11.8 423.4,52.8 424.9,52.8 438.1,8.9 438.6,8.9 438.6,51.2 434.5,51.8 434.5,53 453.9,53 453.9,51.8 449.7,51.2 
	449.7,5.4 453.9,4.9 453.9,4 438.4,4 429,34.8 "/>
<path d="M483.5,48.9c3.8,2.4,8.2,4.2,13.2,4.2c9.2,0,17.3-4.8,17.3-15.1c0-8.9-7.9-13.3-14.7-16c-4.9-2-9.6-4.4-9.6-9.6
	c0-6.5,6.2-7.5,8.4-7.5c4.6,0,7.7,2.7,10.8,9.2c0.7,1.5,1.4,2.9,2.1,4.4h0.7l-0.3-14.3h-0.7l-0.7,3c-2.8-1.8-7.7-3.3-11.9-3.3
	c-9.4,0-16.9,5-16.9,13.7c0,8.3,7,12.1,13.9,15c5.1,2.2,10.4,5.1,10.4,10.9c0,6.5-4.5,8.5-8.7,8.5c-5.7,0-9.5-3.5-12.2-9.9
	c-0.7-1.6-1.4-3.2-2.1-4.8h-0.7l0.3,15.3h0.7L483.5,48.9z"/>
<polygon points="516.5,15.9 517.2,15.9 524.8,5.7 530.4,5.4 530.4,51.4 526.2,51.9 526.2,52.9 545.6,52.9 545.6,51.9 541.5,51.4 
	541.5,5.4 547,5.7 554.6,15.9 555.3,15.9 555,4.1 516.9,4.1 "/>
<path class="st0" d="M57.3,23.7C57.3,23.6,57.3,23.6,57.3,23.7C57.3,23.6,57.3,23.6,57.3,23.7c0-0.1-0.1-0.2-0.2-0.2
	c-0.1,0-0.2,0.1-0.2,0.2l0,0C54.4,33.1,46.8,41,36.6,43.5C21.5,47.2,6.2,34.7,3.3,23.3c-0.5-3-0.3-3.1-0.2-4.2
	c0,0.2,0.1,0.5,0.1,0.8c0.5,3,1.9,5.9,4.3,8.6c7.6,8.6,22.9,11.3,33.9,5.2c10.9-6,13.4-17.9,5.5-26.8c-2-2.3-4.5-4.1-7.2-5.5l0,0
	h-0.1c-0.1,0-0.2,0.1-0.2,0.2s0,0.1,0.1,0.1l0,0c6.6,8.1,5.2,19.4-3.4,25.5c-8.9,6.4-22.1,4.6-29.2-3.4c-1.5-1.7-2.7-3.8-3.1-5.1
	c-0.1-0.3-0.2-0.6-0.2-0.9c0,0,0,0,0-0.1c1.7,1.3,6.7,4.9,13.2,4.9c21.2,0.1,19.1-19.9,5.1-20C18,2.6,13.5,4.1,9.1,8
	c-2.5,2.6-4.4,4.9-6.1,9l0,0c0,0-1,2.6-1.4,4.7c-0.1,0.5-0.2,1.2-0.3,1.8c-0.1,0.9-0.2,1.7-0.3,2.6c-0.8,15.2,11.1,29,26.9,29.8
	c10.1,0.5,19.2-4.4,24.6-12.1l-0.1-0.1c-6.1,6.9-15.8,10.7-26,9.1c-14.1-2.3-24-14.2-24.6-27.1c0-0.7,0-1.5,0.4-3.4
	c0-0.1,0-0.1,0-0.2C2.2,23,2.3,24,2.5,25c2.5,14.9,16.7,25.9,32,23.7C47.3,46.8,56.5,36.2,57.3,23.7L57.3,23.7L57.3,23.7L57.3,23.7"
	/>
</svg>
