<?xml version="1.0" encoding="utf-8"?>
<!-- Generator: Adobe Illustrator 25.2.3, SVG Export Plug-In . SVG Version: 6.00 Build 0)  -->
<svg version="1.1" id="Capa_1" xmlns="http://www.w3.org/2000/svg" xmlns:xlink="http://www.w3.org/1999/xlink" x="0px" y="0px"
	 viewBox="0 0 162 21.3" style="enable-background:new 0 0 162 21.3;" xml:space="preserve">
<style type="text/css">
	.st0{clip-path:url(#SVGID_2_);fill:#1D1D1B;}
</style>
<g>
	<defs>
		<rect id="SVGID_1_" width="162" height="26.7"/>
	</defs>
	<clipPath id="SVGID_2_">
		<use xlink:href="#SVGID_1_"  style="overflow:visible;"/>
	</clipPath>
	<path class="st0" d="M30.2,10.3l6.7-9.9h-6.3l-4,6.4l-4-6.4h-6.2l6.7,10l-7.2,10.5h6.3l4.5-6.9l4.5,6.9h6.2L30.2,10.3z M42.2,10.6
		c0-3.3,2.4-5.9,5.6-5.9c2.1,0,3.9,1.4,4.5,3l4.5-2.1c-1.4-2.7-4-5.5-9.1-5.5c-6.1,0-10.9,4.3-10.9,10.6c0,6.3,4.8,10.6,10.9,10.6
		c5.1,0,7.8-2.9,9.1-5.5l-4.5-2.1c-0.7,1.6-2.4,3-4.5,3C44.6,16.5,42.2,13.9,42.2,10.6 M77.2,20.8h13.5v-4.6h-8.2V0.3h-5.3V20.8z
		 M98,6.1c0-0.9,0.7-1.6,2.4-1.6c1.8,0,4.1,0.7,5.8,2.1l2.9-3.8c-2.2-1.9-5-2.9-8.3-2.9c-5.2,0-8.2,3-8.2,6.4c0,4.9,4.7,5.7,8.1,6.4
		c2.2,0.5,3.5,0.9,3.5,2.1c0,1-1.1,1.7-2.9,1.7c-2.8,0-5.1-1.2-6.5-2.7l-2.8,4c2.1,2,4.9,3.3,9.1,3.3c5.5,0,8.5-2.7,8.5-6.8
		c0-4.6-4.7-5.6-8-6.3C99.3,7.6,98,7.2,98,6.1 M112.1,20.8h5.3V0.3h-5.3V20.8z M136.5,10.6c0,3.3-2.2,5.9-5.6,5.9
		c-3.4,0-5.6-2.6-5.6-5.9c0-3.3,2.2-5.9,5.6-5.9C134.3,4.7,136.5,7.2,136.5,10.6 M141.9,10.6c0-6.2-4.7-10.6-10.9-10.6
		c-6.3,0-11,4.4-11,10.6c0,6.2,4.7,10.6,11,10.6C137.2,21.2,141.9,16.8,141.9,10.6 M156.5,7.1c0,1.4-1.2,2.3-2.5,2.3h-4.2V4.8h4.2
		C155.4,4.8,156.5,5.7,156.5,7.1 M161.9,7.2c0-3.8-2.6-6.8-7.1-6.8h-10.3v20.5h5.3v-6.9h2.7l3.4,6.9h6l-4.2-7.5
		C159.7,12.6,161.9,10.7,161.9,7.2"/>
	<path class="st0" d="M0,20.8h15v-4.5H5.3v-3.8v-1c0.2-0.1,0.6-0.1,0.8-0.1c0.8,0,1.5,0.2,1.9,0.5c0.5,0.3,1.1,0.4,2,0.4
		c1.5-0.1,2.2-0.9,2.8-2.6l0-0.1l-0.4-0.3l-0.1,0.1c-0.2,0.1-0.5,0.4-1.3,0.4c-0.6,0-1-0.2-1.4-0.4C9.2,9.2,8.6,8.9,7.6,8.9
		C7,8.9,5.9,9,5.3,9.4V7.7V4.8H15V0.3H0V20.8z"/>
	<path class="st0" d="M59.2,20.8h15v-4.5h-9.7v-3.8v-1c0.2-0.1,0.6-0.1,0.8-0.1c0.8,0,1.5,0.2,1.9,0.5c0.5,0.3,1.1,0.4,2,0.4
		c1.5-0.1,2.2-0.9,2.8-2.6l0-0.1l-0.4-0.3l-0.1,0.1c-0.2,0.1-0.5,0.4-1.3,0.4c-0.6,0-1-0.2-1.4-0.4c-0.5-0.3-1.1-0.5-2.1-0.5
		c-0.6,0-1.8,0.1-2.4,0.5V7.7V4.8h9.7V0.3h-15V20.8z"/>
</g>
</svg>
