<svg width="236" height="33" viewBox="0 0 236 33" fill="none" xmlns="http://www.w3.org/2000/svg">
<path d="M18.8125 3.81239C18.8125 1.24989 16.375 0.437391 14.3125 0.499891V0.749892C15.5625 0.874892 16.5 1.37489 16.5 2.18739C16.5 2.74989 16.0625 3.49989 14.875 3.49989C13.875 3.49989 12.3125 2.93739 10.75 2.43739C9.0625 1.87489 7.5 1.31239 6.1875 1.31239C3.625 1.31239 1.625 3.24989 1.625 5.62489C1.625 7.56239 3.125 8.18739 3.6875 8.43739L3.75 8.31239C3.375 8.06239 3.125 7.74989 3.125 6.93739C3.125 6.24989 3.625 5.31239 4.9375 5.31239C6.125 5.31239 7.6875 5.87489 9.8125 6.43739C11.625 6.93739 13.5625 7.43739 14.625 7.56239V11.7499L12.625 13.4374L14.625 15.1874V20.9374C13.5625 21.5624 12.375 21.7499 11.3125 21.7499C9.375 21.7499 7.625 21.1874 6.1875 19.6249L11.625 16.9999V7.81239L5 10.8124C5.6875 9.06239 7 7.74989 8.4375 6.87489L8.375 6.74989C4.4375 7.81239 0.8125 11.4374 0.8125 15.9374C0.8125 21.3124 5.125 25.2499 10.0625 25.2499C15.4375 25.2499 18.5625 21.0624 18.5 16.6249H18.375C17.5625 18.3124 16.3125 19.9374 14.8125 20.8124V15.1874L16.9375 13.4999L14.8125 11.8124V7.62489C16.8125 7.56239 18.8125 6.24989 18.8125 3.81239ZM7.625 18.5624L6.0625 19.3749C5.125 18.1249 4.5 16.4374 4.5 14.1874C4.5 13.2499 4.625 11.9999 4.9375 11.1249L7.6875 9.87489L7.625 18.5624ZM32.5625 11.1874L31.5 11.9999L28.375 9.18739L24.6875 11.9999V1.12489L19.6875 4.56239C20.25 4.74989 20.9375 5.06239 20.9375 6.37489V21.4999L19.25 22.8124L19.4375 22.9999L20.3125 22.3749L23.25 25.0624L27.25 22.4374L27.0625 22.1874L26.0625 22.8749L24.6875 21.4999V12.3749L25.625 11.6874L27.8125 13.5624V21.4999C27.8125 26.4999 26.6875 27.5624 24.4375 28.3749V28.4999C28.1875 28.6874 31.5625 27.3749 31.5625 20.9374V12.3124L32.6875 11.3749L32.5625 11.1874ZM39.25 24.9999L45 20.3749L44.8125 20.1249L41.8125 22.4999L38.3125 19.8124V18.1249L44.3125 13.8749L41.3125 9.18739L34.625 12.8749V21.5624L33.3125 22.5624L33.5 22.7499L34.75 21.7499L39.25 24.9999ZM38.3125 17.7499V11.1874L41.1875 15.7499L38.3125 17.7499ZM68.875 2.56239C68.875 2.12489 68.75 1.81239 68.625 1.31239H68.5C68.0625 2.43739 67.625 2.99989 66.375 2.99989C65.25 2.99989 64.375 2.31239 63.875 1.81239C63.875 1.87489 60.0625 6.18739 60.0625 6.18739L60.25 6.37489L61.3125 5.12489C62.125 5.74989 62.875 6.49989 64.6875 6.49989V17.5624L57 4.12489C56.375 3.12489 55.375 1.62489 53.5625 1.62489C51.5 1.62489 49.875 3.43739 50.125 6.43739H50.25C50.4375 5.68739 50.875 4.74989 51.75 4.74989C52.5 4.74989 53.0625 5.43739 53.4375 6.06239V10.3749C51.0625 10.3749 49.6875 11.4999 49.6875 13.3749C49.6875 14.1874 50.25 15.8749 51.875 16.1249V15.9999C51.625 15.7499 51.4375 15.5624 51.4375 15.1249C51.4375 14.3749 52 13.9999 52.9375 13.9999C53.125 13.9999 53.3125 14.0624 53.4375 14.0624V19.6874C50.625 19.7499 48.4375 21.2499 48.4375 23.9374C48.4375 26.4374 50.625 27.6249 52.875 27.4999V27.3749C51.4375 27.1874 50.75 26.4999 50.75 25.4374C50.75 24.3124 51.5625 23.6874 52.625 23.6874C53.6875 23.6874 54.4375 24.3749 55.125 25.1249L58.9375 20.8749L58.75 20.6874L57.75 21.8124C56.3125 20.4999 55.375 19.9374 53.6875 19.6874V6.43739L64.375 25.0624H64.9375V6.49989C67.0625 6.37489 68.875 4.87489 68.875 2.56239ZM72.5 24.9999L78.25 20.3749L78.0625 20.1249L75.0625 22.4999L71.5625 19.7499V18.0624L77.5625 13.8124L74.5625 9.12489L67.875 12.8124V21.4999L66.5625 22.4999L66.75 22.6874L68 21.6874L72.5 24.9999ZM71.625 17.7499V11.1874L74.5 15.7499L71.625 17.7499ZM98.75 10.6874L97.875 11.3749L95.375 9.24989L92.4375 11.8749L93.625 12.9999V22.8749L90.625 20.8124V12.8124L91.6875 12.0624L88.625 9.18739L85.75 11.8124L86.9375 12.9374V22.4999L86.75 22.6249L83.9375 20.5624V12.7499C83.9375 10.9374 83 10.3749 81.875 9.68739C80.875 9.06239 80.375 8.49989 80.375 7.62489C80.375 6.62489 81.25 6.18739 81.5625 6.06239C80.5625 5.99989 77.75 7.06239 77.6875 9.62489C77.625 10.9374 78.3125 11.4999 78.9375 12.1249C79.625 12.7499 80.25 13.3749 80.25 14.4374V22.1249L78.875 23.1874L79.0625 23.3749L80.375 22.3749L83.75 25.1249L87 22.8749L90.5625 25.1249L97.5 20.9999V12.0624L99.0625 10.8749L98.75 10.6874ZM122 3.18739L120.688 4.37489L117.75 1.81239L113.75 5.06239V2.06239H113.5V23.7499C113.062 23.6874 112.125 23.4374 111.125 23.2499V5.12489C111.125 3.81239 110.188 1.99989 107.812 1.99989C105.375 1.99989 103.938 3.99989 103.938 5.74989H104.062C104.188 4.93739 104.75 4.24989 105.5 4.24989C106.312 4.24989 107 4.74989 107 6.49989V11.6874C104.75 11.8124 103.375 13.1874 103.375 14.6874C103.375 15.5624 103.938 17.1249 105.625 17.1874V17.0624C105.062 16.8124 104.938 16.4999 104.938 16.1874C104.938 15.4374 105.687 15.1874 106.688 15.1874H106.938V23.4999C105 24.1874 104.125 25.4374 104.125 27.0624C104.125 29.2499 105.875 30.9999 108.5 30.9999C110.312 30.9999 111.625 30.6874 113.312 30.3124C114.688 29.9999 116.125 29.6874 116.938 29.6874C117.938 29.6874 118.375 30.1249 118.375 30.8749C118.375 31.8124 118 32.2499 117.5 32.4374V32.5624C119.688 32.1249 120.938 30.8749 120.938 28.9374C120.938 26.9374 119 25.6874 116.875 25.6874C115.75 25.6874 113.75 26.0624 112.125 26.4374C110.312 26.8749 108.688 27.0624 108.125 27.0624C107.188 27.0624 106.062 26.6249 106.062 25.4374C106.062 24.3124 107 23.4374 109.25 23.4374C110.5 23.4374 111.688 23.6249 113.188 23.9999C114.812 24.3749 115.875 24.8124 117.312 24.8124C119.25 24.8124 120.812 24.1249 120.812 21.3124V4.68739L122.25 3.37489L122 3.18739ZM116.562 11.8749C116.188 12.2499 115.812 12.5624 115.125 12.5624C114.375 12.5624 114 12.1874 113.688 11.8749V5.37489L114.625 4.62489L116.562 6.24989V11.8749ZM116.562 14.9999C116.25 14.6874 115.812 14.3749 115.125 14.3749C114.437 14.3749 113.938 14.7499 113.688 14.9999V12.2499C114 12.4999 114.437 12.8749 115.125 12.8749C115.812 12.8749 116.25 12.5624 116.562 12.2499V14.9999ZM116.562 21.4999C116.562 22.5624 116 23.7499 114.625 23.7499C114.375 23.7499 113.875 23.6874 113.688 23.6874V15.3124C114 14.9999 114.437 14.6249 115.125 14.6249C115.812 14.6249 116.188 14.9374 116.562 15.3124V21.4999ZM127.812 24.9999L134.25 20.9999V12.2499L130.062 9.18739L123.625 12.8749V21.5624L122.375 22.5624L122.5 22.7499L123.562 21.8749L127.812 24.9999ZM127.375 20.4999V11.1249L130.625 13.4999V22.8124L127.375 20.4999ZM146.562 9.37489C146.062 9.74989 145.625 9.93739 145.125 9.93739C144.625 9.93739 144 9.62489 143.688 9.18739C143.688 9.24989 141.312 11.7499 141.312 11.7499L138.938 9.18739L135 11.8749L135.125 12.1249L136.188 11.4374L137.625 12.9999V21.4999L135.938 22.8124L136.125 22.9999L137 22.3749L140.188 25.0624L144.25 22.3749L144.125 22.1874L143.062 22.8124L141.438 21.3124V11.9999C142.125 12.7499 142.875 13.3749 143.75 13.3749C145.25 13.3749 146.375 11.4374 146.562 9.37489ZM161.812 21.9374L160.625 22.6874L153.938 12.7499L154.312 12.2499C155.062 12.6874 155.688 13.3124 157.062 13.3124C158.438 13.3124 160.187 11.8749 160.375 9.18739C160 9.68739 159.312 10.2499 158.188 10.2499C157.375 10.2499 156.562 9.68739 156.062 9.18739L151.5 15.8749L157.5 25.0624L161.875 22.1874L161.812 21.9374ZM153.688 22.1874L152.688 22.8749L151.312 21.4999V1.12489L146.312 4.56239C146.875 4.74989 147.562 5.06239 147.562 6.37489V21.4999L145.875 22.8124L146.062 22.9999L146.938 22.3749L149.875 25.0624L153.875 22.4374L153.688 22.1874ZM183 3.81239C183 1.24989 180.562 0.437391 178.5 0.499891V0.749892C179.75 0.874892 180.688 1.37489 180.688 2.18739C180.688 2.74989 180.25 3.49989 179.062 3.49989C178.062 3.49989 176.5 2.93739 174.938 2.43739C173.25 1.87489 171.687 1.31239 170.375 1.31239C167.812 1.31239 165.812 3.24989 165.812 5.62489C165.812 7.56239 167.312 8.18739 167.875 8.43739L167.938 8.31239C167.562 8.06239 167.312 7.74989 167.312 6.93739C167.312 6.24989 167.812 5.31239 169.125 5.31239C170.312 5.31239 171.875 5.87489 174 6.43739C175.812 6.93739 177.75 7.43739 178.812 7.56239V11.7499L176.812 13.4374L178.812 15.1874V20.9374C177.75 21.5624 176.562 21.7499 175.5 21.7499C173.562 21.7499 171.812 21.1874 170.375 19.6249L175.812 16.9999V7.81239L169.125 10.7499C169.812 8.99989 171.125 7.68739 172.562 6.81239L172.5 6.68739C168.562 7.74989 164.938 11.3749 164.938 15.8749C164.938 21.2499 169.25 25.1874 174.188 25.1874C179.562 25.1874 182.688 20.9999 182.625 16.5624H182.5C181.688 18.2499 180.438 19.8749 178.938 20.7499V15.1249L181.062 13.4374L178.938 11.7499V7.56239C181 7.56239 183 6.24989 183 3.81239ZM171.75 18.5624L170.188 19.3749C169.25 18.1249 168.625 16.4374 168.625 14.1874C168.625 13.2499 168.75 11.9999 169.062 11.1249L171.812 9.87489L171.75 18.5624ZM187.062 2.81239L184.312 5.12489L186.688 7.81239L189.438 5.49989L187.062 2.81239ZM191.312 22.1874L190.312 22.8749L188.938 21.4999V12.3124L190.125 11.3749L189.938 11.1874L188.938 11.9374L186.625 9.18739L182.812 11.8124L182.938 12.0624L183.875 11.4374L185.125 12.9999V21.4999L183.438 22.8124L183.625 22.9999L184.5 22.3749L187.438 25.0624L191.438 22.4374L191.312 22.1874ZM212.562 22.0624L211.625 22.6874L210.125 21.2499V12.3124L211.312 11.3749L211.125 11.1874L210.062 11.9999L206.938 9.18739L203.375 11.9374L200.25 9.18739L196.75 11.9374L194.375 9.18739L190.562 11.8124L190.688 12.0624L191.625 11.4374L193 12.9999V21.4374L191.938 22.4999L194.938 25.0624L197.875 22.4374L196.688 21.3124V12.2499L197.5 11.6874L199.688 13.5624V21.4374L198.688 22.4999L201.75 25.0624L204.625 22.4374L203.438 21.3124V12.2499L204.188 11.6249L206.375 13.5624V21.3124L205.5 22.2499L208.562 25.0624L212.625 22.3124L212.562 22.0624ZM223.625 20.1874L220.625 22.5624L217.125 19.8124V18.1249L223.125 13.8749L220.125 9.18739L213.438 12.8749V21.7499L218 25.0624L223.75 20.4374L223.625 20.1874ZM217.125 17.7499V11.1874L220 15.7499L217.125 17.7499ZM235.188 16.4999L232.625 14.5624C234.312 13.0624 234.938 11.1874 234.938 9.81239C234.938 9.62489 234.875 9.24989 234.875 8.93739H234.75C234.5 9.62489 233.813 10.2499 232.812 10.2499C231.812 10.2499 231.188 9.68739 230.562 8.99989L224.688 12.2499V16.9999L226.938 18.7499C224.688 20.7499 224.25 21.9999 224.25 23.1249C224.25 24.3124 224.938 25.2499 226.062 25.6874L226.188 25.4999C225.875 25.2499 225.625 25.0624 225.625 24.4999C225.625 24.0624 226.062 23.3749 227.062 23.3749C228.375 23.3749 229.125 24.2499 229.562 24.7499C229.562 24.6874 235.188 21.3124 235.188 21.3124V16.4999ZM233.875 12.6249C233 14.1874 231.062 15.7499 229.875 16.6249L228.438 15.4374V10.8124C229 12.0624 230.188 13.1249 231.688 13.1249C232.625 13.1249 233.188 12.9374 233.875 12.6249ZM231.438 22.9999C230.75 21.4999 229.375 20.4374 227.75 20.4374C227.375 20.4374 226.188 20.3749 225.188 21.0624C225.812 20.0624 227.562 18.2499 229.875 16.8749L231.438 18.1874V22.9999Z" fill="#101828"/>
</svg>
